<svg width="76" height="76" viewBox="0 0 76 76" fill="none" xmlns="http://www.w3.org/2000/svg">
<path d="M25.1207 70.437L25.9162 70.1824C41.7639 65.1112 52.8087 50.7479 53.6396 34.1293L54.4509 17.9038C54.7624 11.673 58.98 6.32042 64.9651 4.56008C65.2779 4.46809 65.2299 4.01097 64.9048 3.98596L62.8286 3.82625C54.81 3.20943 47.5515 8.56511 45.7755 16.4089L41.3202 36.0868C40.9273 37.8219 40.3726 39.5164 39.6632 41.1479C36.1068 49.3276 28.5945 55.1042 19.7757 56.4404L16.1674 56.9871C13.5842 57.3785 11.7529 59.7144 11.9895 62.3164L12.0175 62.6245C12.1668 64.2663 12.8045 65.8257 13.8484 67.1016C16.565 70.4219 21.0349 71.7445 25.1207 70.437Z" fill="#2AE8E8"/>
<path d="M31.9134 46.1551L12.1017 15.272C11.321 14.0551 12.7322 12.6242 13.9598 13.3881L39.3733 29.2009L38.837 33.1667C38.2914 37.2007 36.5483 40.9784 33.8329 44.0112L31.9134 46.1551Z" fill="#2AE8E8"/>
</svg>
